<svg width="13" height="16" viewBox="0 0 13 16" fill="none" xmlns="http://www.w3.org/2000/svg">
<path d="M10.8572 8.50026C10.8796 10.9216 12.9768 11.7274 13 11.7377C12.9822 11.7945 12.6649 12.8859 11.8952 14.0133C11.2297 14.988 10.539 15.9591 9.45105 15.9792C8.38211 15.9989 8.03832 15.3439 6.81612 15.3439C5.59427 15.3439 5.21235 15.9591 4.20038 15.9989C3.15022 16.0388 2.35052 14.945 1.6796 13.9739C0.308509 11.9874 -0.739259 8.36062 0.667634 5.91247C1.36654 4.6967 2.6156 3.92687 3.97126 3.90713C5.00247 3.88743 5.97584 4.60239 6.60624 4.60239C7.23623 4.60239 8.41908 3.7426 9.66256 3.86886C10.1831 3.89059 11.6443 4.07954 12.5826 5.45593C12.507 5.5029 10.8391 6.47598 10.8572 8.50031M8.84813 2.55466C9.40571 1.87832 9.78093 0.936845 9.67855 0C8.87489 0.0323664 7.90314 0.536692 7.32667 1.21262C6.81008 1.81125 6.35767 2.76931 6.47974 3.68759C7.37552 3.75705 8.29055 3.2314 8.84813 2.55466Z" fill="black"/>
</svg>
