<svg width="14" height="8" viewBox="0 0 14 8" fill="none" xmlns="http://www.w3.org/2000/svg">
<path d="M13.0087 0.292708C12.8212 0.105237 12.5669 -7.87424e-05 12.3017 -7.87655e-05C12.0366 -7.87887e-05 11.7823 0.105237 11.5947 0.292708L6.64473 5.24271L1.69473 0.292707C1.50613 0.110549 1.25352 0.00975447 0.991326 0.0120329C0.729129 0.0143113 0.478316 0.11948 0.292908 0.304888C0.1075 0.490296 0.00233243 0.741109 5.39874e-05 1.00331C-0.00222445 1.2655 0.0985699 1.5181 0.280728 1.70671L5.93773 7.36371C6.12526 7.55118 6.37956 7.65649 6.64473 7.65649C6.90989 7.65649 7.1642 7.55118 7.35173 7.36371L13.0087 1.70671C13.1962 1.51918 13.3015 1.26487 13.3015 0.999708C13.3015 0.734544 13.1962 0.480236 13.0087 0.292708Z" fill="black"/>
</svg>
