<svg width="17" height="17" viewBox="0 0 17 17" fill="none" xmlns="http://www.w3.org/2000/svg">
<path d="M6.61111 14.1667C4.76945 14.1667 3.20734 13.5254 1.92478 12.2428C0.642225 10.9603 0.000632886 9.39785 3.2567e-06 7.55555V1.88889C3.2567e-06 1.36944 0.185114 0.924925 0.555336 0.555333C0.925558 0.185741 1.37008 0.000629629 1.88889 0H13.6944C14.6074 0 15.3866 0.322685 16.0319 0.968055C16.6773 1.61342 17 2.39259 17 3.30555C17 4.21852 16.6773 4.99768 16.0319 5.64305C15.3866 6.28842 14.6074 6.61111 13.6944 6.61111H13.2222V7.55555C13.2222 9.39722 12.5809 10.9596 11.2984 12.2428C10.0158 13.526 8.45341 14.1673 6.61111 14.1667ZM1.88889 4.72222H11.3333V1.88889H1.88889V4.72222ZM6.61111 12.2778C7.91759 12.2778 9.03141 11.8172 9.95256 10.896C10.8737 9.9749 11.334 8.8614 11.3333 7.55555V6.61111H1.88889V7.55555C1.88889 8.86203 2.34947 9.97584 3.27061 10.897C4.19176 11.8181 5.30526 12.2784 6.61111 12.2778ZM13.2222 4.72222H13.6944C14.088 4.72222 14.4226 4.58465 14.6984 4.3095C14.9742 4.03435 15.1117 3.6997 15.1111 3.30555C15.1105 2.91141 14.9729 2.57707 14.6984 2.30255C14.4239 2.02804 14.0892 1.89015 13.6944 1.88889H13.2222V4.72222ZM0.944448 17C0.676855 17 0.452707 16.9093 0.272003 16.728C0.0912996 16.5467 0.000632886 16.3225 3.2567e-06 16.0555C-0.000626373 15.7886 0.0900404 15.5644 0.272003 15.3831C0.453966 15.2018 0.678114 15.1111 0.944448 15.1111H14.1667C14.4343 15.1111 14.6587 15.2018 14.8401 15.3831C15.0214 15.5644 15.1117 15.7886 15.1111 16.0555C15.1105 16.3225 15.0198 16.547 14.8391 16.7289C14.6584 16.9109 14.4343 17.0012 14.1667 17H0.944448Z" fill="#10141D"/>
</svg>
