<svg width="13" height="17" viewBox="0 0 13 17" fill="none" xmlns="http://www.w3.org/2000/svg">
<path d="M1.625 17C1.17812 17 0.795708 16.8416 0.47775 16.5248C0.159791 16.208 0.000541667 15.8267 0 15.381V7.28571C0 6.84048 0.15925 6.45946 0.47775 6.14267C0.79625 5.82587 1.17867 5.66721 1.625 5.66667H2.4375V4.04762C2.4375 2.92778 2.83373 1.97335 3.62619 1.18433C4.41865 0.395318 5.37658 0.000540235 6.5 5.52576e-07C7.62342 -0.00053913 8.58162 0.394239 9.37462 1.18433C10.1676 1.97443 10.5636 2.92886 10.5625 4.04762V5.66667H11.375C11.8219 5.66667 12.2046 5.82533 12.5231 6.14267C12.8416 6.46 13.0005 6.84102 13 7.28571V15.381C13 15.8262 12.841 16.2075 12.5231 16.5248C12.2051 16.8421 11.8224 17.0005 11.375 17H1.625ZM6.5 12.9524C6.94687 12.9524 7.32956 12.794 7.64806 12.4772C7.96656 12.1604 8.12554 11.7791 8.125 11.3333C8.12446 10.8876 7.96548 10.5065 7.64806 10.1903C7.33064 9.87403 6.94796 9.71537 6.5 9.71429C6.05204 9.71321 5.66962 9.87187 5.35275 10.1903C5.03587 10.5087 4.87662 10.8897 4.875 11.3333C4.87337 11.777 5.03262 12.1582 5.35275 12.4772C5.67287 12.7961 6.05529 12.9545 6.5 12.9524ZM4.0625 5.66667H8.9375V4.04762C8.9375 3.37302 8.70052 2.7996 8.22656 2.32738C7.7526 1.85516 7.17708 1.61905 6.5 1.61905C5.82292 1.61905 5.2474 1.85516 4.77344 2.32738C4.29948 2.7996 4.0625 3.37302 4.0625 4.04762V5.66667Z" fill="#C8C8C8"/>
</svg>
