<svg width="20" height="20" viewBox="0 0 20 20" fill="none" xmlns="http://www.w3.org/2000/svg">
<path d="M10 19L18.131 14.792C18.447 14.628 18.605 14.547 18.72 14.426C18.8219 14.3198 18.899 14.1925 18.946 14.053C19 13.894 19 13.717 19 13.361V5.53302M10 19L1.869 14.792C1.553 14.628 1.395 14.547 1.28 14.426C1.17814 14.3198 1.10097 14.1925 1.054 14.053C1 13.894 1 13.716 1 13.359V5.53302M10 19V9.93702M19 5.53302L10 9.93702M19 5.53302L10.73 1.25302C10.463 1.11502 10.33 1.04502 10.189 1.01802C10.0641 0.993992 9.93585 0.993992 9.811 1.01802C9.671 1.04502 9.537 1.11502 9.269 1.25302L1 5.53302M1 5.53302L10 9.93702" stroke="#10141D" stroke-width="2" stroke-linecap="round" stroke-linejoin="round"/>
</svg>
