<svg width="20" height="19" viewBox="0 0 20 19" fill="none" xmlns="http://www.w3.org/2000/svg">
<path d="M15.2381 19H4.7619V6.65L11.4286 0L12.619 1.1875C12.7302 1.29833 12.8216 1.44875 12.8933 1.63875C12.9651 1.82875 13.0006 2.01083 13 2.185V2.5175L11.9524 6.65H18.0952C18.6032 6.65 19.0476 6.84 19.4286 7.22C19.8095 7.6 20 8.04333 20 8.55V10.45C20 10.5608 19.9841 10.6796 19.9524 10.8062C19.9206 10.9329 19.8889 11.0517 19.8571 11.1625L17 17.86C16.8571 18.1767 16.619 18.4458 16.2857 18.6675C15.9524 18.8892 15.6032 19 15.2381 19ZM6.66667 17.1H15.2381L18.0952 10.45V8.55H9.52381L10.8095 3.325L6.66667 7.4575V17.1ZM4.7619 6.65V8.55H1.90476V17.1H4.7619V19H0V6.65H4.7619Z" fill="#10141D"/>
</svg>
